<svg xmlns="http://www.w3.org/2000/svg" viewBox="0 0 120 120">
	<path fill="#860094" d="M70.1,90.8c3.4,7.6,11.1,12.5,19.5,12.2c1.9,0,3.9-0.2,5.8-0.7c1.4-0.4,2.3-0.3,2.8,0.1c0.8,0.7,0.9,1.9,0.2,2.7c0,0,0,0,0,0c-0.1,0.1-0.1,0.1-0.2,0.2c-0.4,0.2-0.7,0.5-1.1,0.7c-6.1,2.6-12.7,4-19.4,4c-9.8-0.1-19-4.5-25.3-12c-1.6-1.8-3-3.9-4-6.1l-0.9-1.7l-1.9-0.7c-7.7-2.5-14.3-7.4-19-13.9c-4.8-7.3-7.2-16-6.8-24.7c-0.3-9.4,2.4-18.6,7.8-26.2c1.8-2.4,3.9-4.5,6.2-6.4c7.1-5.5,15.8-8.5,24.8-8.4c3.6,0,5.9,0,6.7,0.1c7.6,0.8,14.8,3.7,20.9,8.3c9.6,7.9,14.8,20,14.1,32.4c0.3,9.3-2.4,18.5-7.8,26.2c-1.8,2.4-3.9,4.5-6.2,6.3c-4.3,3.4-9.3,5.7-14.6,7L70.1,90.8z M35.7,50.8c0-15.6,2.7-26.6,8.2-33.2c0.2-0.2,0.3-0.4,0.5-0.6c0.1-0.1,0.1-0.2,0-0.2c-1.4,0.4-2.8,1-4,1.9c-11.2,6.7-16.8,17.5-16.8,32.2c0,14.9,5.6,25.6,16.8,32.1c1.3,0.8,2.6,1.5,4.1,1.9c-0.2-0.2-0.3-0.5-0.6-0.8c-3.2-4.2-5.4-9.1-6.4-14.3C36.2,63.6,35.6,57.2,35.7,50.8L35.7,50.8z M63.4,14.2C62,14,60.7,13.9,59.3,14c-4.1-0.1-8,1.6-10.9,4.5c-5.8,5.7-8.7,16.5-8.7,32.4c-0.5,9.1,1.1,18.2,4.7,26.5c1.9,4.4,5.6,7.9,10.1,9.6c3.6,0.9,7.5,0.9,11.1,0c7.1-2.5,11.7-9.7,13.7-21.7c0.8-4.8,1.1-9.7,1-14.6c0.1-6-0.5-12-1.7-17.9C76.1,21.8,71,15.5,63.4,14.2z M54.8,91.6c-0.7-0.1-1.3-0.2-1.9-0.3h-0.3l0.2,0.6c2.8,4.8,6.9,8.6,11.9,11c4.2,2.1,8.9,3.2,13.6,3.1c1.1,0.1,2.2,0,3.3-0.2c-0.3-0.2-0.6-0.3-1-0.4c-4.2-1.6-8-4.3-10.8-7.8c-1.2-1.5-2.2-3.1-3.1-4.8l-0.6-1.2h-0.7c-1.9,0.2-3.8,0.4-5.8,0.3C58.2,91.8,56.6,91.7,54.8,91.6L54.8,91.6z M84.2,50.8c0,15.7-2.9,27.1-8.7,34.1c1.4-0.5,2.8-1.1,4.1-1.9c11.1-6.5,16.7-17.3,16.7-32.2c0.6-9.9-3-19.5-9.7-26.8c-2.7-2.8-6-5-9.5-6.7c-0.5-0.2-1-0.4-1.5-0.6c0.2,0.3,0.4,0.5,0.6,0.8c3.2,4.2,5.4,9.1,6.3,14.3C83.8,38.1,84.4,44.4,84.2,50.8L84.2,50.8z" />
</svg>
